<?xml version="1.0" encoding="utf-8"?>
<!-- Generator: Adobe Illustrator 18.1.1, SVG Export Plug-In . SVG Version: 6.00 Build 0)  -->
<!DOCTYPE svg PUBLIC "-//W3C//DTD SVG 1.1//EN" "http://www.w3.org/Graphics/SVG/1.1/DTD/svg11.dtd">
<svg version="1.1" id="Layer_1" xmlns="http://www.w3.org/2000/svg" xmlns:xlink="http://www.w3.org/1999/xlink" x="0px" y="0px"
	 viewBox="41 82.8 534 483" enable-background="new 41 82.8 534 483" xml:space="preserve">
<g display="none">
	<path display="inline" fill="#FFD800" d="M177.2,205.4c0-21.9,17.7-39.8,39.3-39.8h33.1l0,4c0,4.4,3.6,8,8,8l101,0c4.4,0,8-3.6,8-8
		v-4h33.1c21.6,0,39.3,17.9,39.3,39.8v265c0,21.9-17.7,39.7-39.3,39.7H216.5c-9,0-17.3-3.1-23.9-8.3c0,0-0.1-0.1-0.1-0.1
		c-9.3-7.3-15.2-18.7-15.2-31.4V205.4L177.2,205.4z M413.2,457.1H203.1v6.1h210.1V457.1z M413.2,429.5H203.1v6.1h210.1V429.5z
		 M413.2,401.8H203.1v6.1h210.1V401.8z M413.2,374.1H203.1v6.1h210.1V374.1z M413.2,346.5H203.1v6.1h210.1V346.5z M413.2,318.8
		H203.1v6.1h210.1V318.8z M413.2,291.1H203.1v6.1h210.1V291.1z M413.2,263.5H203.1v6.1h210.1V263.5z M413.2,235.8H203.1v6.1h210.1
		V235.8z M249.6,151h-42.1c-23.7,0-43.1,19.4-43.1,43.1v230.7v4.4v24.1l0,28.3c0,1.7,0.1,3.4,0.3,5.1c2.1,17.5,14.7,31.8,31.2,36.5
		c3.7,1,7.6,1.6,11.6,1.6h201.3c23.7,0,43.1-19.4,43.1-43.1V194.1c0-23.7-19.4-43.1-43.1-43.1h-42.1l0-18.7c0-4.4-3.6-8-8-8h-101
		c-4.4,0-8,3.6-8,8L249.6,151L249.6,151z"/>
</g>
<path fill="#FFD800" d="M540.6,124.3h-465c-5.7,0-10.4,4.6-10.4,10.4S69.9,145,75.6,145h31.1c22.4,38.4,60,137.6,60,369
	c0,5.1,4.2,9.3,9.4,9.3c5.2,0,9.4-4.2,9.4-9.3c0-2.3,0-4.5-0.1-6.7l32.5-36.5l43.4,53l46.6-56.2l46.7,56.2l43.4-53l32.5,36.5
	c0,2.2,0,4.4,0,6.7c0,5.1,4.2,9.3,9.3,9.3c5.2,0,9.4-4.2,9.4-9.3c0-230.2,38.1-330.2,60.4-369h31c5.7,0,10.4-4.6,10.4-10.4
	S546.4,124.3,540.6,124.3z M260.6,320.8l38.8,39.6l-35.4,39.7l-36.6-40.5L260.6,320.8z M260,302.3l-42.8-43.6l41.9-39.3l40.2,36.9
	L260,302.3z M268.7,311.3l39.2-45.8l39.2,45.8l-39.2,40L268.7,311.3z M355.3,320.8l33.2,38.8l-36.7,40.5l-35.3-39.7L355.3,320.8z
	 M316.7,256.4l40.2-36.9l41.9,39.3L356,302.3L316.7,256.4z M350.7,208L308,247.3L265.3,208c-0.8-18.1-8.4-43.8-15-63h115.4
	C359.1,164.2,351.5,189.9,350.7,208z M127.8,145H237c6.6,18.7,15,45.5,15.7,63.3l-44.3,41.6l-64-65.4
	C138.7,168.3,133.1,155.4,127.8,145z M169.4,286.5c-4.9-29.7-10.7-54.8-16.6-75.7l46.6,47.5L169.4,286.5z M208.1,267.3l43.7,44.6
	L219,350.3l-45.6-50.3L208.1,267.3z M181.5,394.1c-1.8-27.3-4.3-52.1-7.3-74.5l36.5,40.4L181.5,394.1z M185.2,488.7
	c-0.2-21-0.9-40.9-1.7-59.7l26.3,32.1L185.2,488.7z M184.2,410.2l35.1-41l36.4,40.4l-37.5,42.1L184.2,410.2z M261.4,504.3
	l-35.1-42.9l37.9-42.5l35.5,39.2L261.4,504.3z M272.5,409.5l35.4-39.8l35.5,39.8L308,448.6L272.5,409.5z M354.5,504.3l-38.3-46.2
	l35.5-39.2l38,42.5L354.5,504.3z M397.7,451.7l-37.5-42.1l36.5-40.4l35.1,41L397.7,451.7z M430.7,488.7l-24.6-27.6l26.3-32.1
	C431.6,447.8,430.9,467.7,430.7,488.7z M434.4,394.1l-29.2-34.2l36.5-40.4C438.8,342,436.2,366.8,434.4,394.1z M397,350.3
	l-32.8-38.4l43.7-44.6l34.7,32.6L397,350.3z M446.5,286.5l-29.9-28.1l46.6-47.5C457.2,231.8,451.5,256.8,446.5,286.5z M471.5,184.5
	l-64.1,65.4l-44.3-41.6c0.8-17.7,9.1-44.5,15.7-63.3h109.3C482.9,155.4,477.2,168.3,471.5,184.5z"/>
<path display="none" fill="#FFD800" d="M506.3,194.8c0-0.4,0-0.4,0-0.9v-0.4c0-0.4-0.4-0.9-0.9-1.3l-31.1-31.1l0,0l-32.4-32
	c-0.9-0.9-1.8-1.3-2.6-1.3l-40.7-3.5c0,0,0,0-0.4,0s-0.4,0-0.9,0h-0.4c-0.4,0-0.4,0.4-0.9,0.4c0,0-0.4,0-0.4,0.4l0,0l-56.1,56.1v0.4
	c-0.4,0-0.4,0.4-0.9,0.9c0,0,0,0.4-0.4,0.4c0,0.4,0,0.9,0,0.9v0.4l0,0c0,0,0,0,0,0.4l7.4,36.8c0,0.9,0.4,1.8,1.3,2.2l14.5,14.5
	c-0.4,0.4-1.3,0.9-1.8,1.3L222.5,377.4c-0.4,0.4-0.9,1.3-1.3,1.8l-14.5-14.5c-0.4-0.4-1.3-0.9-2.2-1.3l-36.8-7.4c0,0,0,0-0.4,0l0,0
	h-0.4c-0.4,0-0.9,0-0.9,0c-0.4,0-0.4,0-0.9,0.4c-0.9,0.4-1.3,0.4-1.3,0.9h-0.4l-55.6,55.6l0,0l-0.4,0.4c0,0.4-0.4,0.9-0.4,0.9v0.4
	c0,0.4,0,0.9,0,0.9s0,0,0,0.4l3.5,40.7c0,0.9,0.4,2.2,1.3,2.6l31.5,31.5l0,0l31.1,31.1c0.4,0.4,0.9,0.9,1.3,0.9h0.4
	c0.4,0,0.4,0,0.9,0l41.2,3.9h0.4l0,0l0,0l0,0c0.4,0,1.3,0,1.8-0.4c0,0,0,0,0.4,0s0.9-0.4,1.3-0.9l0,0l55.6-55.6v-0.4
	c0.4-0.4,0.4-0.4,0.4-0.9c0-0.4,0-0.4,0.4-0.4c0-0.4,0-0.9,0-0.9v-0.4l0,0c0,0,0,0,0-0.4l-7.4-36.8c0-0.9-0.4-1.8-1.3-2.2
	l-14.5-13.6c0.4-0.4,1.3-0.9,1.8-1.3l137.1-137.1c0.4-0.4,0.9-1.3,1.3-1.8l14.5,14.5c0.4,0.4,1.3,0.9,2.2,1.3l36.8,7.4h0.4l0,0h0.4
	l0,0l0,0c0.4,0,0.9,0,1.8-0.4c0,0,0.4,0,0.4-0.4c0.4,0,0.4-0.4,0.9-0.4l0,0l55.6-55.6l0,0l0.4-0.4c0-0.4,0.4-0.4,0.4-0.9v-0.4
	c0-0.4,0-0.4,0-0.9v-0.4L506.3,194.8z M499.7,219.7l-6.6-10.1l5.3-5.3L499.7,219.7z M439.7,139.2l27.6,27.6l0,0l28.5,28.5l-8.3,8.3
	l-56.1-56.1L439.7,139.2z M481.7,210.1l-24.5,24.5l-24.5,24.5l-57.8-56.9l24.5-24.5l24.5-24.5L481.7,210.1z M430.5,135.7l-5.7,5.7
	l-10.5-7L430.5,135.7z M398.5,134.4l18.8,12.7L388,176.4l-20.1,20.1l-18.8-12.7L398.5,134.4z M349.1,193.9l15.3,10.5l-2.2,22.8
	l-8.3-8.3L349.1,193.9z M201,371.7l8.3,8.3l-22.8,2.2l-10.5-15.3L201,371.7z M241.8,450.1l-24.5,24.5l-24.5,24.5l-57.8-56.9l49-49
	L241.8,450.1z M165.6,367.3l12.7,18.8l-48.6,49L117,416.4L165.6,367.3z M116.5,432.1l7,10.5l-5.7,5.7L116.5,432.1z M177.4,513.6
	l-28.5-28.5l0,0l-27.6-27.6l8.3-8.8l56.1,56.5L177.4,513.6z M187,516.2l5.3-5.3l10.1,6.6L187,516.2z M218.1,518l-18.8-12.7
	l29.3-29.3l20.1-20.1l18.8,12.7L218.1,518z M262.8,433.4l4.8,25l-14.9-10.1l4.4-20.6L262.8,433.4z M249.7,420.3l-4.4,21L194,390.1
	l22.3-2.2c-2.2,8.3-0.4,17.5,6.1,24.1c4.8,4.8,10.9,7,17.5,7c2.6,0,5.3-0.4,7.4-1.3L249.7,420.3z M388,268.8L251,405.9
	c-6.1,6.1-16.2,6.1-22.3,0c-6.1-6.1-6.1-16.2,0-22.3l137.1-137.1c3.1-3.1,7-4.8,10.9-4.8c4.4,0,8.3,1.8,10.9,4.8
	c3.1,3.1,4.8,7,4.8,10.9C392.4,261.3,391.1,265.7,388,268.8L388,268.8z M400.3,264.9c0.9-2.2,1.3-4.8,1.3-7.4c0-6.6-2.6-12.7-7-17.5
	c-6.6-6.6-15.8-8.3-24.1-6.1l2.2-22.3l51.2,51.2l-21,4.4L400.3,264.9z M415.6,280.6l-5.7-5.7l20.6-4.4l10.1,14.9L415.6,280.6z
	 M451.1,285l-12.7-18.8l20.1-20.1l29.3-29.3l12.7,18.8L451.1,285z"/>
</svg>
