<?xml version="1.0" encoding="UTF-8"?>
<svg width="10px" height="10px" viewBox="0 0 10 10" version="1.1" xmlns="http://www.w3.org/2000/svg" xmlns:xlink="http://www.w3.org/1999/xlink">
    <!-- Generator: Sketch 63.1 (92452) - https://sketch.com -->
    <title>Mask</title>
    <desc>Created with Sketch.</desc>
    <g id="Mobile-Designs" stroke="none" stroke-width="1" fill="none" fill-rule="evenodd">
        <path d="M9.49642857,0.503571429 C9.21831375,0.225456608 8.76740053,0.225456608 8.48928571,0.503571429 L5,3.99285714 L5,3.99285714 L1.51071429,0.503571429 C1.23259947,0.225456608 0.781686249,0.225456608 0.503571429,0.503571429 C0.225456608,0.781686249 0.225456608,1.23259947 0.503571429,1.51071429 L3.99285714,5 L3.99285714,5 L0.503571429,8.48928571 C0.225456608,8.76740053 0.225456608,9.21831375 0.503571429,9.49642857 C0.781686249,9.77454339 1.23259947,9.77454339 1.51071429,9.49642857 L5,6.00714286 L5,6.00714286 L8.48928571,9.49642857 C8.76740053,9.77454339 9.21831375,9.77454339 9.49642857,9.49642857 C9.77454339,9.21831375 9.77454339,8.76740053 9.49642857,8.48928571 L6.00714286,5 L6.00714286,5 L9.49642857,1.51071429 C9.77454339,1.23259947 9.77454339,0.781686249 9.49642857,0.503571429 Z" id="Mask" fill="#FFFFFF"></path>
    </g>
</svg>